<svg width="30" height="30" viewBox="0 0 30 30" fill="none" xmlns="http://www.w3.org/2000/svg">
<path d="M15 27.5002C21.9036 27.5002 27.5 21.9038 27.5 15.0002C27.5 8.09668 21.9036 2.50024 15 2.50024C8.09644 2.50024 2.5 8.09668 2.5 15.0002C2.5 21.9038 8.09644 27.5002 15 27.5002Z" stroke="black" stroke-width="1.875"/>
<path fill-rule="evenodd" clip-rule="evenodd" d="M8.84149 18.1744C8.95499 17.9884 9.15712 17.875 9.37499 17.875H20.625C20.8429 17.875 21.045 17.9884 21.1585 18.1744C21.272 18.3604 21.2804 18.5921 21.1808 18.7858C21.1727 18.8016 21.1645 18.8176 21.1562 18.8338C20.4191 20.2679 18.758 23.5 15 23.5C11.242 23.5 9.58093 20.2679 8.84381 18.8338C8.83549 18.8176 8.82731 18.8016 8.81918 18.7858C8.71956 18.5921 8.72799 18.3604 8.84149 18.1744ZM10.4214 19.125C11.2534 20.5644 12.5914 22.25 15 22.25C17.4086 22.25 18.7466 20.5644 19.5786 19.125H10.4214Z" fill="black"/>
<path fill-rule="evenodd" clip-rule="evenodd" d="M18.9708 12.7327C18.7608 12.5927 18.4873 12.5927 18.2774 12.7327L17.0958 13.5204C16.8086 13.7118 16.4205 13.6342 16.229 13.347C16.0376 13.0598 16.1152 12.6718 16.4024 12.4803L17.584 11.6926C18.2138 11.2727 19.0343 11.2727 19.6642 11.6926L20.8458 12.4803C21.133 12.6718 21.2106 13.0598 21.0191 13.347C20.8277 13.6342 20.4396 13.7118 20.1524 13.5204L18.9708 12.7327Z" fill="black"/>
<path fill-rule="evenodd" clip-rule="evenodd" d="M11.4708 12.7327C11.2608 12.5927 10.9873 12.5927 10.7774 12.7327L9.59578 13.5204C9.30859 13.7118 8.92053 13.6342 8.72903 13.347C8.53759 13.0598 8.61522 12.6718 8.9024 12.4803L10.084 11.6926C10.7138 11.2727 11.5343 11.2727 12.1642 11.6926L13.3458 12.4803C13.633 12.6718 13.7106 13.0598 13.5191 13.347C13.3277 13.6342 12.9396 13.7118 12.6524 13.5204L11.4708 12.7327Z" fill="black"/>
</svg>
