<svg width="12" height="11" viewBox="0 0 12 11" fill="none" xmlns="http://www.w3.org/2000/svg">
<path d="M5.60677 10.769C5.53354 10.696 5.47544 10.6093 5.43579 10.5138C5.39615 10.4184 5.37574 10.316 5.37574 10.2126C5.37574 10.1092 5.39615 10.0069 5.43579 9.91139C5.47544 9.81592 5.53354 9.7292 5.60677 9.65623L8.97713 6.28586L0.785426 6.28586C0.577104 6.28586 0.377315 6.20311 0.230008 6.0558C0.0827021 5.90849 -5.43615e-05 5.7087 -5.43524e-05 5.50038C-5.43433e-05 5.29206 0.0827022 5.09227 0.230008 4.94496C0.377315 4.79766 0.577104 4.7149 0.785426 4.7149L8.97713 4.7149L5.60677 1.34323C5.45921 1.19566 5.37631 0.995527 5.37631 0.786843C5.37631 0.578159 5.45921 0.378023 5.60677 0.230461C5.75433 0.0828992 5.95447 -2.47348e-07 6.16315 -2.40425e-07C6.37183 -2.33502e-07 6.57197 0.0828992 6.71953 0.230461L11.4324 4.94335C11.5056 5.01632 11.5637 5.10303 11.6034 5.19851C11.643 5.29398 11.6634 5.39635 11.6634 5.49973C11.6634 5.60311 11.643 5.70547 11.6034 5.80095C11.5637 5.89643 11.5056 5.98314 11.4324 6.05611L6.71953 10.769C6.64656 10.8422 6.55985 10.9003 6.46437 10.94C6.36889 10.9796 6.26653 11 6.16315 11C6.05977 11 5.9574 10.9796 5.86193 10.94C5.76645 10.9003 5.67974 10.8422 5.60677 10.769Z" fill="#EA352B"/>
</svg>
