<svg width="34" height="34" viewBox="0 0 34 34" fill="none" xmlns="http://www.w3.org/2000/svg">
<path d="M21.709 0.601782C19.2742 -0.185884 13.5434 0.0285045 12.1106 1.89095C8.38574 1.96273 4.01674 5.32873 3.44346 9.77045C2.8768 14.1659 4.14046 16.2068 4.59002 19.5124C5.09908 23.2571 7.20424 24.4547 8.88819 24.9562C11.3097 28.155 13.8843 28.0181 18.2061 28.0181C26.6466 28.0181 30.6661 22.3703 31.0212 12.7785C31.2356 6.97678 27.8319 2.58323 21.709 0.601782Z" fill="#292F33"/>
<path d="M26.5361 13.1884C25.7192 12.0579 24.6737 11.1475 22.3815 10.8245C23.2409 11.2183 24.0645 12.5792 24.1721 13.331C24.2798 14.0828 24.3875 14.692 23.7065 13.9402C20.9809 10.9274 18.0115 12.1136 15.0696 10.2729C13.0145 8.98752 12.3893 7.56519 12.3893 7.56519C12.3893 7.56519 12.139 9.46352 9.02232 11.3977C8.11943 11.9587 7.04182 13.2073 6.44398 15.0509C6.01426 16.3759 6.14743 17.5584 6.14743 19.5776C6.14743 25.4728 11.0056 30.4292 16.9991 30.4292C22.9925 30.4292 27.8508 25.4293 27.8508 19.5776C27.8517 15.9103 27.4673 14.4785 26.5361 13.1884Z" fill="#F3BD9A"/>
<path d="M25.8542 22.831C24.8701 23.8699 22.9028 25.9476 20.9355 24.9088C18.1532 23.4392 17 23.8699 17 23.8699C17 23.8699 15.8468 23.4401 13.0645 24.9088C11.0972 25.9476 9.12901 23.8699 8.14585 22.831C7.44979 22.0962 5.19446 20.7532 5.19446 22.831C5.19446 25.9476 7.16174 28.0254 7.16174 28.0254C9.12901 33.2199 13.0645 33.2199 13.0645 33.2199C14.0486 34.2588 19.9514 34.2588 20.9346 33.2199C20.9346 33.2199 24.8701 33.2199 26.8373 28.0254C26.8373 28.0254 28.8046 25.9476 28.8046 22.831C28.8056 20.7532 26.5493 22.0971 25.8542 22.831Z" fill="#292F33"/>
<path d="M17 28.0265C13.0645 28.0265 10.1131 25.9487 17 25.9487C23.8869 25.9487 20.9355 28.0265 17 28.0265Z" fill="#F3BD9A"/>
</svg>
