<svg width="20" height="20" viewBox="0 0 20 20" fill="none" xmlns="http://www.w3.org/2000/svg">
<path d="M1.66675 10.0001C1.66675 6.07171 1.66675 4.10752 2.88714 2.88714C4.10752 1.66675 6.07171 1.66675 10.0001 1.66675C13.9285 1.66675 15.8926 1.66675 17.113 2.88714C18.3334 4.10752 18.3334 6.07171 18.3334 10.0001C18.3334 13.9285 18.3334 15.8926 17.113 17.113C15.8926 18.3334 13.9285 18.3334 10.0001 18.3334C6.07171 18.3334 4.10752 18.3334 2.88714 17.113C1.66675 15.8926 1.66675 13.9285 1.66675 10.0001Z" stroke="black" stroke-width="1.5"/>
<path d="M5.83325 11.6666L7.33066 9.86969C7.92403 9.15765 8.22072 8.80163 8.61103 8.80163C9.00134 8.80163 9.29803 9.15765 9.8914 9.86969L10.1084 10.1301C10.7018 10.8422 10.9985 11.1982 11.3888 11.1982C11.7791 11.1982 12.0758 10.8422 12.6692 10.1301L14.1666 8.33325" stroke="black" stroke-width="1.5" stroke-linecap="round"/>
</svg>
