<svg width="207" height="34" viewBox="0 0 207 34" fill="none" xmlns="http://www.w3.org/2000/svg">
<path d="M8.15179 13.7675H21.1494V20.4248H8.15179V32.3807H0V0H24.0931V6.6573H8.15179V13.7675Z" fill="#0F1124"/>
<path d="M54.099 20.6965C54.099 28.7577 50.3402 33.1053 40.558 33.1053C30.7759 33.1053 27.017 28.7577 27.017 20.6965V0H35.1688V20.6965C35.1688 24.9083 36.9803 26.448 40.558 26.448C44.1357 26.448 45.9472 24.9083 45.9472 20.6965V0H54.099V20.6965Z" fill="#0F1124"/>
<path d="M66.4421 12.4088H80.5718V19.0661H66.4421V25.7234H83.108V32.3807H58.2903V0H82.8362V6.6573H66.4421V12.4088Z" fill="#0F1124"/>
<path d="M86.7278 0H94.8796V25.7234H109.281V32.3807H86.7278V0Z" fill="#0F1124"/>
<path d="M120.03 32.3807V0H128.182L139.504 19.2473H139.595V0H147.746V32.3807H139.595L128.273 13.1334H128.182V32.3807H120.03Z" fill="#0F1124"/>
<path d="M170.807 25.6329H159.711L157.628 32.3807H149.476L161.206 0H169.357L181.042 32.3807H172.89L170.807 25.6329ZM161.568 19.4284H168.995L165.327 7.47248H165.236L161.568 19.4284Z" fill="#0F1124"/>
<path d="M177.382 0H186.032L192.146 22.6892H192.236L198.395 0H207L196.493 32.3807H187.889L177.382 0Z" fill="#0F1124"/>
</svg>
