<svg width="34" height="34" viewBox="0 0 34 34" fill="none" xmlns="http://www.w3.org/2000/svg">
<path d="M7.47954 14.6201C6.11954 16.3201 2.20954 15.3001 1.42754 19.0401C0.679541 21.0801 0.679541 27.5401 4.75954 26.8601C4.41954 21.7601 4.07954 19.3801 4.07954 19.3801C4.07954 19.3801 4.41954 24.1401 4.75954 26.5201C7.81954 27.8801 12.9195 27.8801 16.6595 26.1801C16.6595 23.4601 16.3195 21.7601 16.6595 20.0601C16.6595 18.3601 16.6595 26.5201 16.6595 26.5201C16.6595 26.5201 18.6995 27.2001 19.3795 24.8201C20.3995 21.4201 21.0795 16.6601 16.3195 15.3001C13.2595 14.9601 13.9395 14.6201 13.5995 14.6201C12.9195 14.6201 7.47954 14.6201 7.47954 14.6201Z" fill="#427794" stroke="#2A424F" stroke-width="0.34"/>
<path d="M7.8201 12.9202C7.8201 12.9202 8.1601 13.9402 7.4801 14.6202C8.5001 15.9802 11.2201 17.3402 13.6001 14.6202C13.2601 13.9402 13.2601 13.9402 13.2601 12.9202H7.8201Z" fill="#F3BD9A" stroke="#693311" stroke-width="0.34"/>
<path d="M10.5396 14.28C5.77958 14.28 2.58358 1.63205 10.5396 1.42805C18.6996 1.39405 14.9596 14.28 10.5396 14.28Z" fill="#F3BD9A" stroke="#693311" stroke-width="0.34"/>
<path d="M5.77983 8.84016C4.75983 5.44016 4.75983 1.08816 10.5398 0.816162C14.9598 1.05416 16.6598 5.10016 14.9598 8.84016C14.9598 7.14016 15.2998 6.46016 14.6198 5.44016C13.2598 5.10016 11.2198 5.44016 9.51983 3.74016C9.17983 5.10016 5.09983 4.42016 5.77983 8.84016Z" fill="#553932" stroke="#311710" stroke-width="0.34"/>
<path d="M15.3 22.1001C17 19.3801 15.3 13.6001 16.32 11.5601C17.34 8.16012 18.7 6.12012 21.76 6.12012C25.16 6.12012 27.2 8.84012 28.56 11.9001C28.9 12.5801 28.56 13.9401 29.24 15.6401C29.58 17.0001 28.9 18.3601 28.9 19.0401C28.9 20.7401 28.56 20.0601 29.58 22.1001C27.88 26.5201 18.02 25.5001 15.3 22.1001Z" fill="#5F3E20" stroke="#311710" stroke-width="0.34"/>
<path d="M19.72 20.4001C18.02 22.1001 13.6 21.4201 12.92 24.8201C12.24 26.8601 12.58 33.3201 16.66 32.9801C16.32 27.5401 15.64 25.1601 15.64 25.1601C15.64 25.1601 16.32 30.2601 16.66 32.3001C19.72 34.0001 24.4801 34.0001 28.5601 31.9601C28.5601 29.9201 28.2201 27.5401 28.5601 25.8401C28.9001 24.1401 28.5601 32.6401 28.5601 32.6401C28.5601 32.6401 30.9401 32.9801 31.6201 30.6001C32.3001 27.5401 32.9801 23.1201 29.2401 22.1001C26.18 21.0801 25.84 20.4001 25.1601 20.4001C24.8201 20.4001 19.72 20.4001 19.72 20.4001Z" fill="#D8933B" stroke="#2A424F" stroke-width="0.34"/>
<path d="M19.7198 18.3601C19.7198 18.3601 20.0598 19.3801 19.7198 20.7401C20.7398 21.7601 23.1198 23.4601 25.1598 20.7401C24.8198 19.3801 24.8198 19.3801 24.8198 18.3601H19.7198Z" fill="#F9D3BA" stroke="#693311" stroke-width="0.34"/>
<path d="M22.4396 20.06C17.6796 20.06 14.6196 7.14005 22.4396 6.80005C29.2396 7.14005 26.8596 20.06 22.4396 20.06Z" fill="#FFD1B4" stroke="#693311" stroke-width="0.34"/>
<path d="M21.4195 9.17996C20.3995 10.88 19.0395 11.9 17.3395 12.24C15.9795 12.58 18.0195 6.45996 21.7595 6.45996C23.4595 6.45996 26.1795 7.47996 26.8595 11.56C24.8195 11.9 22.0995 9.85996 21.4195 9.17996Z" fill="#5F3E20"/>
</svg>
