<svg width="78" height="15" viewBox="0 0 78 15" fill="none" xmlns="http://www.w3.org/2000/svg">
<path d="M13.8884 5.65563C13.8531 5.78194 13.7862 5.89681 13.6945 5.98962L13.6455 6.03239L10.797 8.51837L10.6884 8.61312L10.7208 8.75353L11.5741 12.4547L11.5742 12.4553C11.6087 12.6028 11.5988 12.7571 11.546 12.899C11.4932 13.0409 11.3997 13.1641 11.2773 13.2531C11.1548 13.3422 11.0088 13.3932 10.8576 13.3997C10.7064 13.4063 10.5567 13.3682 10.4271 13.2901C10.427 13.2901 10.4269 13.29 10.4268 13.2899L7.19924 11.3323L7.07442 11.2566L6.94967 11.3325L3.72929 13.2899C3.72919 13.29 3.72908 13.2901 3.72898 13.2901C3.59937 13.3682 3.44964 13.4063 3.29849 13.3997C3.14722 13.3932 3.00123 13.3422 2.87878 13.2531C2.75634 13.1641 2.66286 13.0409 2.61004 12.899C2.55722 12.7571 2.5474 12.6028 2.58181 12.4553L2.58196 12.4547L3.43399 8.75729L3.46632 8.617L3.3579 8.52226L0.50876 6.0325L0.508764 6.03249L0.50758 6.03147C0.392739 5.93243 0.309697 5.80168 0.268868 5.65562C0.228039 5.50957 0.23124 5.35472 0.278069 5.21047C0.324899 5.06623 0.413272 4.93903 0.532108 4.84481C0.650943 4.7506 0.79495 4.69356 0.946071 4.68086L0.946685 4.68081L4.70217 4.35554L4.84696 4.343L4.90316 4.20897L6.3691 0.712435L6.36926 0.712057C6.42754 0.572376 6.52585 0.453062 6.6518 0.369137C6.77776 0.285213 6.92572 0.240432 7.07708 0.240432C7.22843 0.240432 7.3764 0.285214 7.50236 0.369137C7.62831 0.453061 7.72662 0.572376 7.7849 0.712058L7.78516 0.712673L9.25552 4.2092L9.31179 4.34301L9.4564 4.35554L13.2106 4.68081L13.2112 4.68086C13.3624 4.69356 13.5064 4.7506 13.6252 4.84481C13.744 4.93903 13.8324 5.06623 13.8792 5.21047C13.9261 5.35471 13.9293 5.50957 13.8884 5.65562L14.12 5.72036L13.8884 5.65563Z" fill="#FCC767" stroke="#A26A3F" stroke-width="0.480769"/>
<path d="M29.9693 5.65563C29.9339 5.78194 29.8671 5.89681 29.7753 5.98962L29.7263 6.03239L26.8778 8.51837L26.7692 8.61312L26.8016 8.75353L27.6549 12.4547L27.6551 12.4553C27.6895 12.6028 27.6796 12.7571 27.6268 12.899C27.574 13.0409 27.4805 13.1641 27.3581 13.2531C27.2356 13.3422 27.0896 13.3932 26.9384 13.3997C26.7872 13.4063 26.6375 13.3682 26.5079 13.2901C26.5078 13.2901 26.5077 13.29 26.5076 13.2899L23.28 11.3323L23.1552 11.2566L23.0305 11.3325L19.8101 13.2899C19.81 13.29 19.8099 13.2901 19.8098 13.2901C19.6802 13.3682 19.5305 13.4063 19.3793 13.3997C19.228 13.3932 19.082 13.3422 18.9596 13.2531C18.8371 13.1641 18.7437 13.0409 18.6908 12.899C18.638 12.7571 18.6282 12.6028 18.6626 12.4553L18.6628 12.4547L19.5148 8.75729L19.5471 8.617L19.4387 8.52226L16.5896 6.0325L16.5896 6.03249L16.5884 6.03147C16.4735 5.93243 16.3905 5.80168 16.3497 5.65562C16.3088 5.50957 16.312 5.35472 16.3589 5.21047C16.4057 5.06623 16.4941 4.93903 16.6129 4.84481C16.7318 4.7506 16.8758 4.69356 17.0269 4.68086L17.0275 4.68081L20.783 4.35554L20.9278 4.343L20.984 4.20897L22.4499 0.712435L22.4501 0.712057C22.5083 0.572376 22.6067 0.453062 22.7326 0.369137C22.8586 0.285213 23.0065 0.240432 23.1579 0.240432C23.3092 0.240432 23.4572 0.285214 23.5832 0.369137C23.7091 0.453061 23.8074 0.572376 23.8657 0.712058L23.866 0.712673L25.3363 4.2092L25.3926 4.34301L25.5372 4.35554L29.2914 4.68081L29.2921 4.68086C29.4432 4.69356 29.5872 4.7506 29.706 4.84481C29.8248 4.93903 29.9132 5.06623 29.9601 5.21047C30.0069 5.35471 30.0101 5.50957 29.9693 5.65562L30.2008 5.72036L29.9693 5.65563Z" fill="#FCC767" stroke="#A26A3F" stroke-width="0.480769"/>
<path d="M46.0499 5.65563C46.0146 5.78194 45.9477 5.89681 45.856 5.98962L45.807 6.03239L42.9585 8.51837L42.8499 8.61312L42.8823 8.75353L43.7356 12.4547L43.7357 12.4553C43.7701 12.6028 43.7603 12.7571 43.7075 12.899C43.6547 13.0409 43.5612 13.1641 43.4388 13.2531C43.3163 13.3422 43.1703 13.3932 43.019 13.3997C42.8679 13.4063 42.7182 13.3682 42.5886 13.2901C42.5885 13.2901 42.5884 13.29 42.5882 13.2899L39.3607 11.3323L39.2359 11.2566L39.1112 11.3325L35.8908 13.2899C35.8907 13.29 35.8906 13.2901 35.8905 13.2901C35.7609 13.3682 35.6111 13.4063 35.46 13.3997C35.3087 13.3932 35.1627 13.3422 35.0403 13.2531C34.9178 13.1641 34.8244 13.0409 34.7715 12.899C34.7187 12.7571 34.7089 12.6028 34.7433 12.4553L34.7435 12.4547L35.5955 8.75729L35.6278 8.617L35.5194 8.52226L32.6703 6.0325L32.6703 6.03249L32.6691 6.03147C32.5542 5.93243 32.4712 5.80168 32.4304 5.65562C32.3895 5.50957 32.3927 5.35472 32.4396 5.21047C32.4864 5.06623 32.5748 4.93903 32.6936 4.84481C32.8124 4.7506 32.9564 4.69356 33.1076 4.68086L33.1082 4.68081L36.8637 4.35554L37.0085 4.343L37.0647 4.20897L38.5306 0.712435L38.5307 0.712057C38.589 0.572376 38.6873 0.453062 38.8133 0.369137C38.9392 0.285213 39.0872 0.240432 39.2386 0.240432C39.3899 0.240432 39.5379 0.285214 39.6638 0.369137C39.7898 0.453061 39.8881 0.572376 39.9464 0.712058L39.9467 0.712673L41.417 4.2092L41.4733 4.34301L41.6179 4.35554L45.3721 4.68081L45.3727 4.68086C45.5239 4.69356 45.6679 4.7506 45.7867 4.84481C45.9055 4.93903 45.9939 5.06623 46.0407 5.21047C46.0876 5.35471 46.0908 5.50957 46.0499 5.65562L46.2815 5.72036L46.0499 5.65563Z" fill="#FCC767" stroke="#A26A3F" stroke-width="0.480769"/>
<path d="M62.1307 5.65563C62.0954 5.78194 62.0285 5.89681 61.9368 5.98962L61.8878 6.03239L59.0393 8.51837L58.9307 8.61312L58.9631 8.75353L59.8164 12.4547L59.8165 12.4553C59.851 12.6028 59.8411 12.7571 59.7883 12.899C59.7355 13.0409 59.642 13.1641 59.5196 13.2531C59.3971 13.3422 59.2511 13.3932 59.0999 13.3997C58.9487 13.4063 58.799 13.3682 58.6694 13.2901C58.6693 13.2901 58.6692 13.29 58.6691 13.2899L55.4415 11.3323L55.3167 11.2566L55.192 11.3325L51.9716 13.2899C51.9715 13.29 51.9714 13.2901 51.9713 13.2901C51.8417 13.3682 51.6919 13.4063 51.5408 13.3997C51.3895 13.3932 51.2435 13.3422 51.1211 13.2531C50.9986 13.1641 50.9052 13.0409 50.8523 12.899C50.7995 12.7571 50.7897 12.6028 50.8241 12.4553L50.8243 12.4547L51.6763 8.75729L51.7086 8.617L51.6002 8.52226L48.7511 6.0325L48.7511 6.03249L48.7499 6.03147C48.635 5.93243 48.552 5.80168 48.5112 5.65562C48.4703 5.50957 48.4735 5.35472 48.5204 5.21047C48.5672 5.06623 48.6556 4.93903 48.7744 4.84481C48.8932 4.7506 49.0373 4.69356 49.1884 4.68086L49.189 4.68081L52.9445 4.35554L53.0893 4.343L53.1455 4.20897L54.6114 0.712435L54.6116 0.712057C54.6698 0.572376 54.7681 0.453062 54.8941 0.369137C55.0201 0.285213 55.168 0.240432 55.3194 0.240432C55.4707 0.240432 55.6187 0.285214 55.7447 0.369137C55.8706 0.453061 55.9689 0.572376 56.0272 0.712058L56.0275 0.712673L57.4978 4.2092L57.5541 4.34301L57.6987 4.35554L61.4529 4.68081L61.4535 4.68086C61.6047 4.69356 61.7487 4.7506 61.8675 4.84481C61.9863 4.93903 62.0747 5.06623 62.1215 5.21047C62.1684 5.35471 62.1716 5.50957 62.1307 5.65562L62.3623 5.72036L62.1307 5.65563Z" fill="#FCC767" stroke="#A26A3F" stroke-width="0.480769"/>
<path d="M77.7311 6.04828C77.6958 6.1746 77.6289 6.28946 77.5372 6.38228L77.4882 6.42505L74.6397 8.91102L74.5311 9.00577L74.5635 9.14618L75.4168 12.8474L75.4169 12.848C75.4513 12.9954 75.4415 13.1498 75.3887 13.2917C75.3359 13.4336 75.2424 13.5567 75.1199 13.6458C74.9975 13.7349 74.8515 13.7859 74.7002 13.7924C74.5491 13.7989 74.3994 13.7608 74.2697 13.6828C74.2696 13.6827 74.2695 13.6827 74.2694 13.6826L71.0419 11.725L70.9171 11.6493L70.7923 11.7251L67.572 13.6826C67.5719 13.6827 67.5718 13.6827 67.5716 13.6828C67.442 13.7608 67.2923 13.7989 67.1412 13.7924C66.9899 13.7859 66.8439 13.7349 66.7215 13.6458C66.599 13.5567 66.5055 13.4336 66.4527 13.2917C66.3999 13.1498 66.3901 12.9954 66.4245 12.848L66.4246 12.8473L67.2767 9.14995L67.309 9.00965L67.2006 8.91491L64.3514 6.42515L64.3514 6.42515L64.3502 6.42413C64.2354 6.32508 64.1524 6.19433 64.1115 6.04828C64.0707 5.90223 64.0739 5.74737 64.1207 5.60313C64.1676 5.45889 64.2559 5.33168 64.3748 5.23747C64.4936 5.14325 64.6376 5.08622 64.7887 5.07352L64.7894 5.07347L68.5448 4.74819L68.6896 4.73565L68.7458 4.60162L70.2118 1.10509L70.2119 1.10471C70.2702 0.965032 70.3685 0.845717 70.4945 0.761793C70.6204 0.677869 70.7684 0.633088 70.9197 0.633088C71.0711 0.633088 71.2191 0.677869 71.345 0.761793C71.471 0.845717 71.5693 0.965031 71.6276 1.10471L71.6278 1.10533L73.0982 4.60186L73.1545 4.73566L73.2991 4.74819L77.0533 5.07347L77.0539 5.07352C77.205 5.08622 77.349 5.14325 77.4679 5.23747C77.5867 5.33168 77.6751 5.45889 77.7219 5.60313C77.7687 5.74737 77.7719 5.90223 77.7311 6.04828L77.9627 6.11301L77.7311 6.04828Z" fill="#FFFBF6" stroke="#A26A3F" stroke-width="0.480769"/>
<g clip-path="url(#clip0_1_244)">
<path d="M77.7305 6.13594C77.6952 6.26226 77.6283 6.37713 77.5366 6.46994L77.4876 6.51271L74.6391 8.99869L74.5305 9.09344L74.5629 9.23385L75.4162 12.935L75.4163 12.9356C75.4507 13.0831 75.4409 13.2374 75.3881 13.3793C75.3352 13.5212 75.2418 13.6444 75.1193 13.7335C74.9969 13.8225 74.8509 13.8735 74.6996 13.8801C74.5485 13.8866 74.3987 13.8485 74.2691 13.7705C74.269 13.7704 74.2689 13.7703 74.2688 13.7703L71.0413 11.8127L70.9165 11.737L70.7917 11.8128L67.5714 13.7703C67.5712 13.7703 67.5711 13.7704 67.571 13.7705C67.4414 13.8485 67.2917 13.8866 67.1405 13.8801C66.9893 13.8735 66.8433 13.8225 66.7208 13.7335C66.5984 13.6444 66.5049 13.5212 66.4521 13.3793C66.3993 13.2374 66.3895 13.0831 66.4239 12.9356L66.424 12.935L67.276 9.23761L67.3084 9.09732L67.2 9.00258L64.3508 6.51282L64.3508 6.51281L64.3496 6.51179C64.2348 6.41274 64.1518 6.282 64.1109 6.13594C64.0701 5.98989 64.0733 5.83503 64.1201 5.69079C64.167 5.54655 64.2553 5.41935 64.3742 5.32513C64.493 5.23092 64.637 5.17388 64.7881 5.16118L64.7887 5.16113L68.5442 4.83586L68.689 4.82332L68.7452 4.68928L70.2112 1.19275L70.2113 1.19238C70.2696 1.0527 70.3679 0.933381 70.4939 0.849457C70.6198 0.765533 70.7678 0.720751 70.9191 0.720751C71.0705 0.720751 71.2185 0.765533 71.3444 0.849457C71.4704 0.933381 71.5687 1.0527 71.627 1.19238L71.6272 1.19299L73.0976 4.68952L73.1538 4.82333L73.2985 4.83586L77.0527 5.16113L77.0533 5.16118C77.2044 5.17388 77.3484 5.23092 77.4673 5.32513C77.5861 5.41935 77.6745 5.54655 77.7213 5.69079C77.7681 5.83503 77.7713 5.98989 77.7305 6.13594L77.9621 6.20068L77.7305 6.13594Z" fill="#FCC767" stroke="#A26A3F" stroke-width="0.480769"/>
</g>
<defs>
<clipPath id="clip0_1_244">
<rect width="11.5385" height="13.4615" fill="white" transform="translate(64.3231 0.0883963)"/>
</clipPath>
</defs>
</svg>
