<svg width="20" height="20" viewBox="0 0 20 20" fill="none" xmlns="http://www.w3.org/2000/svg">
<g clip-path="url(#clip0_1_46)">
<path d="M19.4724 17.6446L16.2592 8.66073C16.0336 8.06968 15.5285 7.70431 14.9482 7.70431C14.3679 7.70431 13.8736 8.06968 13.6264 8.68222L10.424 17.6446C10.2736 18.0637 10.4885 18.5258 10.9076 18.6762C11.3267 18.8267 11.7888 18.6118 11.9392 18.1927L12.6055 16.3336H17.2801L17.9464 18.1927C18.0646 18.5258 18.3762 18.73 18.7094 18.73C18.7953 18.73 18.8921 18.7192 18.978 18.687C19.3971 18.5365 19.6121 18.0745 19.4616 17.6554L19.4724 17.6446ZM13.1965 14.7109L14.9589 9.77834L16.7213 14.7109H13.1965ZM10.4562 5.26491C8.02757 9.10132 5.83534 11.4225 3.17027 12.97C3.04131 13.0452 2.90161 13.0774 2.77265 13.0774C2.49325 13.0774 2.22459 12.9377 2.07415 12.6798C1.84848 12.293 1.97743 11.7986 2.3643 11.5837C4.621 10.2727 6.46937 8.39207 8.5434 5.27565H1.784C1.3434 5.27565 0.978027 4.91028 0.978027 4.46968C0.978027 4.02908 1.3434 3.66371 1.784 3.66371H5.81385V1.53595C5.81385 1.09535 6.17922 0.72998 6.61982 0.72998C7.06041 0.72998 7.42579 1.09535 7.42579 1.53595V3.66371H11.4556C11.8962 3.66371 12.2616 4.02908 12.2616 4.46968C12.2616 4.91028 11.8962 5.27565 11.4556 5.27565H10.4455L10.4562 5.26491ZM10.4992 13.0774C10.3595 13.0774 10.2198 13.0452 10.0909 12.97C9.39236 12.5616 8.71534 12.1103 8.0813 11.6374C7.72667 11.3688 7.65146 10.8637 7.92012 10.5091C8.18877 10.1545 8.69385 10.0792 9.04848 10.3479C9.62877 10.7885 10.2628 11.1968 10.9076 11.573C11.2944 11.7986 11.4234 12.293 11.1977 12.6798C11.0473 12.9377 10.7786 13.0774 10.4992 13.0774Z" fill="black"/>
</g>
<defs>
<clipPath id="clip0_1_46">
<rect width="20" height="20" fill="white"/>
</clipPath>
</defs>
</svg>
