<svg width="20" height="20" viewBox="0 0 20 20" fill="none" xmlns="http://www.w3.org/2000/svg">
<path d="M1.66667 10.0001C1.66667 6.07171 1.66667 4.10752 2.88706 2.88714C4.10744 1.66675 6.07163 1.66675 10 1.66675C13.9284 1.66675 15.8926 1.66675 17.1129 2.88714C18.3333 4.10752 18.3333 6.07171 18.3333 10.0001C18.3333 13.9285 18.3333 15.8926 17.1129 17.113C15.8926 18.3334 13.9284 18.3334 10 18.3334C6.07163 18.3334 4.10744 18.3334 2.88706 17.113C1.66667 15.8926 1.66667 13.9285 1.66667 10.0001Z" stroke="white" stroke-width="1.5"/>
<path d="M5.83333 11.6666L7.33074 9.86969C7.92411 9.15765 8.2208 8.80163 8.61111 8.80163C9.00142 8.80163 9.29811 9.15765 9.89148 9.86969L10.1085 10.1301C10.7019 10.8422 10.9986 11.1982 11.3889 11.1982C11.7792 11.1982 12.0759 10.8422 12.6693 10.1301L14.1667 8.33325" stroke="white" stroke-width="1.5" stroke-linecap="round"/>
</svg>
