<svg width="20" height="20" viewBox="0 0 20 20" fill="none" xmlns="http://www.w3.org/2000/svg">
<path d="M2.08333 5.41658C2.08333 3.84524 2.08333 3.05956 2.57149 2.57141C3.05964 2.08325 3.84532 2.08325 5.41667 2.08325C6.98801 2.08325 7.77369 2.08325 8.26184 2.57141C8.75 3.05956 8.75 3.84524 8.75 5.41659V14.5833C8.75 16.1546 8.75 16.9403 8.26184 17.4284C7.77369 17.9166 6.98801 17.9166 5.41667 17.9166C3.84532 17.9166 3.05964 17.9166 2.57149 17.4284C2.08333 16.9403 2.08333 16.1546 2.08333 14.5833V5.41658Z" stroke="black" stroke-width="1.5"/>
<path d="M11.25 12.9166C11.25 11.3452 11.25 10.5596 11.7382 10.0714C12.2263 9.58325 13.012 9.58325 14.5833 9.58325C16.1547 9.58325 16.9404 9.58325 17.4285 10.0714C17.9167 10.5596 17.9167 11.3452 17.9167 12.9166V14.5833C17.9167 16.1546 17.9167 16.9403 17.4285 17.4284C16.9404 17.9166 16.1547 17.9166 14.5833 17.9166C13.012 17.9166 12.2263 17.9166 11.7382 17.4284C11.25 16.9403 11.25 16.1546 11.25 14.5833V12.9166Z" stroke="black" stroke-width="1.5"/>
<path d="M11.25 4.58325C11.25 3.80668 11.25 3.4184 11.3769 3.11211C11.546 2.70373 11.8705 2.37928 12.2789 2.21012C12.5851 2.08325 12.9734 2.08325 13.75 2.08325H15.4167C16.1932 2.08325 16.5815 2.08325 16.8878 2.21012C17.2962 2.37928 17.6206 2.70373 17.7898 3.11211C17.9167 3.4184 17.9167 3.80668 17.9167 4.58325C17.9167 5.35982 17.9167 5.74811 17.7898 6.05439C17.6206 6.46277 17.2962 6.78723 16.8878 6.95638C16.5815 7.08325 16.1932 7.08325 15.4167 7.08325H13.75C12.9734 7.08325 12.5851 7.08325 12.2789 6.95638C11.8705 6.78723 11.546 6.46277 11.3769 6.05439C11.25 5.74811 11.25 5.35982 11.25 4.58325Z" stroke="black" stroke-width="1.5"/>
</svg>
