<svg width="30" height="30" viewBox="0 0 30 30" fill="none" xmlns="http://www.w3.org/2000/svg">
<path d="M15 27.5C21.9036 27.5 27.5 21.9036 27.5 15C27.5 8.09644 21.9036 2.5 15 2.5C8.09644 2.5 2.5 8.09644 2.5 15C2.5 21.9036 8.09644 27.5 15 27.5Z" stroke="black" stroke-width="1.875"/>
<path d="M11.25 20.1399C12.3941 20.1399 13.7252 20.1399 15.1194 20.1399C16.5137 20.1399 17.6331 20.1399 18.75 20.1399" stroke="black" stroke-width="1.875" stroke-linecap="round"/>
<path d="M18.75 13.75C19.4404 13.75 20 13.1904 20 12.5C20 11.8096 19.4404 11.25 18.75 11.25C18.0596 11.25 17.5 11.8096 17.5 12.5C17.5 13.1904 18.0596 13.75 18.75 13.75Z" fill="black"/>
<path d="M11.25 13.75C11.9404 13.75 12.5 13.1904 12.5 12.5C12.5 11.8096 11.9404 11.25 11.25 11.25C10.5596 11.25 10 11.8096 10 12.5C10 13.1904 10.5596 13.75 11.25 13.75Z" fill="black"/>
</svg>
