<?xml version="1.0" encoding="UTF-8"?>
<svg id="Layer_1" data-name="Layer 1" xmlns="http://www.w3.org/2000/svg" viewBox="0 0 72 72">
  <defs>
    <style>
      .cls-1 {
        fill: rgba(187, 47, 40, .1);
        stroke: #bb2f28;
        stroke-width: 2px;
      }

      .cls-2 {
        fill: #bc2e27;
        stroke-width: 0px;
      }
    </style>
  </defs>
  <path class="cls-1" d="m6,36c0-14.1,0-21.2,4.4-25.6s11.5-4.4,25.6-4.4,21.2,0,25.6,4.4c4.4,4.4,4.4,11.5,4.4,25.6s0,21.2-4.4,25.6c-4.4,4.4-11.5,4.4-25.6,4.4s-21.2,0-25.6-4.4-4.4-11.5-4.4-25.6Z"/>
  <g>
    <path class="cls-2" d="m17.82,45c-1-.2-2.1-.4-3.2-.6-1.5-.3-1.7-.6-1.8-2.1,0-.3-.1-.5,0-.8.3-1.4.3-2.7.1-4-.1-.6.2-.9.7-1.1.8-.2,1.5-.5,2.3-.8,4.2-1.3,8.3-3,12.7-3.2,4.9-.2,9.6,0,14,2.3,3.1,1.6,6.4,2.6,9.8,3.1,1.6.3,3.2.9,4.8,1.5.7.2,1.3.7,1.6,1.3.6,1.1.5,2.4.1,3.6-.1.3-.4.7-.6.7-1.1.2-2.2.3-3.3.4v-1.8c-.1-2.2-1.8-3.9-3.9-4-2-.1-3.8,1.3-4.2,3.4-.2.8-.1,1.6-.2,2.4h-20.7c.5-2.4-.2-4.3-1.8-5.2-1.4-.8-3.4-.7-4.7.3-1.4,1.1-1.9,2.7-1.3,4.6q-.1,0-.4,0Z"/>
    <path class="cls-2" d="m18.32,43.7c0-2.1,1.7-3.6,3.8-3.6s3.6,1.7,3.6,3.7c-.1,2.1-1.7,3.7-3.8,3.7-2-.1-3.7-1.8-3.6-3.8Zm3.7,2.6c1.4,0,2.5-1.1,2.5-2.5s-1.1-2.5-2.5-2.5-2.5,1.1-2.5,2.5,1.1,2.5,2.5,2.5Z"/>
    <path class="cls-2" d="m51.02,47.5c-2.1,0-3.7-1.6-3.7-3.7s1.6-3.7,3.7-3.7,3.7,1.7,3.7,3.7-1.6,3.6-3.7,3.7Zm-2.5-3.8c0,1.3,1.1,2.5,2.5,2.5,1.3,0,2.5-1.1,2.5-2.5,0-1.3-1.1-2.5-2.5-2.5-1.3,0-2.5,1.2-2.5,2.5Z"/>
    <g>
      <path class="cls-2" d="m21.01,33.41c.06-.93-.28-1.57-1.06-1.96-.3-.15-.35-.38-.23-.67.27-.67.55-1.33.83-2,.12-.29.36-.37.62-.28.93.3,1.63-.02,2.22-.74.28-.34.62-.63.94-.92.62-.55.86-1.22.6-2.02-.12-.38.02-.59.35-.72.62-.25,1.23-.51,1.85-.76.34-.14.58-.07.76.27.42.77,1.08,1.05,1.94.98.46-.04.94-.03,1.4,0,.81.06,1.43-.23,1.86-.93.29-.48.36-.51.86-.31.6.24,1.19.49,1.78.72.36.14.47.38.36.73-.26.86.03,1.54.69,2.1.34.28.65.6.93.94.55.65,1.21.94,2.06.68.37-.11.61,0,.76.37.24.61.49,1.21.76,1.81.16.35.06.57-.26.76-.88.52-1.25,1.44-.98,2.44.08.29.32.23.49.2.29-.05.68.21.86-.18.07-.16,0-.39-.03-.59-.03-.33.08-.55.39-.72.89-.49,1.21-1.37.84-2.32-.27-.68-.55-1.36-.84-2.04-.41-.95-1.25-1.36-2.25-1.07-.3.09-.51.03-.72-.19-.39-.42-.8-.82-1.25-1.18-.22-.18-.28-.38-.2-.67.3-1.05-.11-1.88-1.11-2.3-.65-.27-1.3-.55-1.96-.81-.97-.38-1.81-.08-2.31.84-.16.29-.37.41-.68.36-.52-.07-1.04-.07-1.56,0-.3.04-.5-.1-.65-.36-.56-.95-1.42-1.23-2.43-.81-.62.26-1.23.51-1.85.77-1.04.44-1.44,1.22-1.16,2.32.07.27,0,.46-.18.65-.42.41-.83.83-1.24,1.25-.17.17-.34.22-.58.16-1.21-.3-1.93.08-2.41,1.23-.25.6-.5,1.21-.74,1.82-.39.98-.11,1.84.81,2.35.31.17.34.4.33.7-.03.97-.08.86.84.87.52,0,.54-.02.55-.54,0-.09,0-.19,0-.21Z"/>
      <path class="cls-2" d="m30.68,26.99c-3.76,0-6.76,2.65-7.21,6.25-.1.84-.09.86.75.85q.56,0,.63-.56c.35-2.99,2.55-5.11,5.56-5.19,3.21-.08,5.5,2.32,5.8,5.01.08.74.07.74.74.74.72,0,.73-.01.66-.75-.31-3.15-2.77-5.77-5.9-6.28-.38-.06-.77-.08-1.02-.08Z"/>
    </g>
  </g>
</svg>