<?xml version="1.0" encoding="UTF-8"?>
<svg id="Layer_1" data-name="Layer 1" xmlns="http://www.w3.org/2000/svg" viewBox="0 0 72 72">
  <defs>
    <style>
      .cls-1 {
        fill: rgba(187, 47, 40, .1);
        stroke: #bb2f28;
        stroke-width: 2px;
      }

      .cls-2 {
        fill: #bc2e27;
      }

      .cls-2, .cls-3 {
        stroke-width: 0px;
      }

      .cls-3 {
        fill: #bc2f27;
      }
    </style>
  </defs>
  <path class="cls-1" d="m6,36c0-14.1,0-21.2,4.4-25.6s11.5-4.4,25.6-4.4,21.2,0,25.6,4.4c4.4,4.4,4.4,11.5,4.4,25.6s0,21.2-4.4,25.6c-4.4,4.4-11.5,4.4-25.6,4.4s-21.2,0-25.6-4.4-4.4-11.5-4.4-25.6Z"/>
  <path class="cls-3" d="m42.43,35.66c-.29,1.75-1.25,3.09-2.51,4.28-1.18,1.11-2.31,2.28-3.44,3.44-.26.26-.42.28-.68,0-1.48-1.53-3.08-2.93-4.46-4.54-1.61-1.87-1.98-4.06-1.1-6.36.88-2.3,2.63-3.67,5.07-4.01,3.41-.47,6.47,1.83,7.07,5.22.01.06.03.12.05.19v1.78Zm-6.34-2.85c-1.06,0-1.89.83-1.9,1.88,0,1.06.85,1.9,1.93,1.89,1.06,0,1.89-.83,1.89-1.88,0-1.07-.84-1.9-1.92-1.89Z"/>
  <path class="cls-2" d="m33.74,16.51h4.73c0,.7.03,1.4.02,2.1,0,.3.12.42.4.46,1,.15,1.98.41,2.92.78.35.14.51.05.67-.26.26-.5.57-.98.84-1.48.13-.24.26-.28.5-.14,1.18.69,2.36,1.38,3.55,2.05.24.14.27.27.13.5-.32.53-.61,1.07-.93,1.6-.13.21-.11.34.08.5.84.67,1.59,1.43,2.27,2.27.16.19.29.21.5.09.53-.32,1.07-.61,1.6-.93.23-.14.36-.11.5.13.68,1.19,1.36,2.37,2.05,3.55.14.24.1.37-.14.5-.52.28-1.02.6-1.54.88-.28.15-.31.31-.2.59.37.96.63,1.94.79,2.96.04.28.16.4.46.4.7,0,1.4.01,2.1.02v4.73c-.7,0-1.4.03-2.1.02-.3,0-.42.12-.46.4-.16,1.03-.43,2.02-.8,2.99-.1.26-.05.4.19.54.53.29,1.04.61,1.57.9.24.13.27.27.13.5-.69,1.18-1.38,2.36-2.05,3.55-.14.24-.28.26-.5.12-.52-.31-1.05-.6-1.56-.91-.24-.15-.38-.11-.55.1-.66.82-1.4,1.56-2.22,2.22-.23.18-.22.33-.08.56.32.51.6,1.05.91,1.56.13.21.12.35-.11.48-1.2.68-2.39,1.37-3.58,2.07-.25.15-.37.07-.49-.15-.29-.52-.6-1.02-.88-1.54-.14-.26-.29-.31-.56-.2-.97.37-1.97.64-2.99.8-.29.04-.39.18-.38.47.01.59,0,1.18,0,1.77,0,.25-.09.35-.35.35-1.37,0-2.74,0-4.1,0-.26,0-.35-.1-.34-.35,0-.6,0-1.21,0-1.81,0-.26-.1-.39-.35-.43-1.05-.16-2.07-.44-3.06-.82-.25-.09-.38-.04-.51.19-.28.51-.59,1-.86,1.51-.15.29-.3.36-.6.18-1.14-.68-2.3-1.34-3.46-2-.26-.15-.32-.29-.15-.55.31-.5.59-1.03.9-1.53.14-.23.13-.38-.09-.56-.83-.66-1.58-1.42-2.24-2.24-.16-.19-.29-.21-.5-.09-.53.32-1.07.61-1.6.93-.23.14-.36.1-.5-.13-.68-1.19-1.36-2.37-2.05-3.55-.14-.24-.09-.37.14-.5.51-.28,1-.59,1.51-.86.28-.15.35-.3.23-.61-.37-.95-.63-1.94-.79-2.96-.04-.29-.17-.4-.47-.39-.59.02-1.18,0-1.77,0-.25,0-.36-.08-.35-.34,0-1.37,0-2.74,0-4.1,0-.29.12-.36.38-.35.59.01,1.18,0,1.77,0,.28,0,.4-.12.44-.38.16-1.03.43-2.02.8-2.99.1-.27.06-.42-.2-.57-.53-.29-1.04-.61-1.57-.9-.22-.12-.26-.25-.13-.47.7-1.19,1.39-2.39,2.07-3.59.13-.23.26-.25.48-.12.53.32,1.07.61,1.6.93.23.14.36.1.52-.1.66-.82,1.4-1.56,2.22-2.22.21-.17.26-.31.11-.55-.32-.51-.6-1.05-.91-1.56-.14-.23-.12-.36.12-.5,1.19-.68,2.37-1.36,3.55-2.05.23-.14.37-.11.5.13.29.53.61,1.04.9,1.57.13.24.28.29.54.19.97-.37,1.97-.64,2.99-.8.28-.04.4-.16.4-.46,0-.7.01-1.4.02-2.1Zm-10.54,18.93c.08,7.14,5.69,12.88,12.9,12.89,7.1.02,12.89-5.64,12.9-12.87.01-7.19-5.73-12.92-12.9-12.91-7.18,0-12.82,5.74-12.9,12.89Z"/>
</svg>