<?xml version="1.0" encoding="UTF-8"?>
<svg id="Layer_1" data-name="Layer 1" xmlns="http://www.w3.org/2000/svg" viewBox="0 0 72 72">
  <defs>
    <style>
      .cls-1 {
        fill: rgba(187, 47, 40, .1);
        stroke: #bb2f28;
        stroke-width: 2px;
      }

      .cls-2 {
        fill: #bc2e27;
        stroke-width: 0px;
      }
    </style>
  </defs>
  <path class="cls-1" d="m6,36c0-14.1,0-21.2,4.4-25.6s11.5-4.4,25.6-4.4,21.2,0,25.6,4.4c4.4,4.4,4.4,11.5,4.4,25.6s0,21.2-4.4,25.6c-4.4,4.4-11.5,4.4-25.6,4.4s-21.2,0-25.6-4.4-4.4-11.5-4.4-25.6Z"/>
  <g>
    <path class="cls-2" d="m36,47.38c-6.62,0-13.23,0-19.85,0-.62,0-.62,0-.62-.64,0-.87-.08-.78.77-.79,1.39,0,2.78-.02,4.17,0,.42,0,.52-.14.52-.54-.02-1.79,0-3.58,0-5.37,0-.7.22-.92.91-.92,1.69,0,3.38,0,5.07,0,.67,0,.89.23.89.9,0,1.82,0,3.63,0,5.45,0,.34.09.48.45.47,1.26-.02,2.53-.02,3.79,0,.38,0,.48-.12.48-.49-.01-3.36,0-6.73,0-10.09,0-.82.19-1.01.99-1.01,1.66,0,3.32,0,4.98,0,.67,0,.9.23.9.89,0,3.38,0,6.76,0,10.14q0,.55.57.55c1.21,0,2.41-.02,3.62,0,.41,0,.53-.11.53-.52-.01-4.93,0-9.85,0-14.78,0-.9.17-1.06,1.07-1.06,1.59,0,3.18,0,4.77,0,.85,0,1.03.18,1.03,1.02,0,4.91,0,9.82,0,14.74q0,.6.61.6c1.45,0,2.9.01,4.34,0,.39,0,.52.11.51.51-.03,1.07.12.92-.94.92-6.52,0-13.03,0-19.55,0Zm9.58-8.89c0,2.34,0,4.68,0,7.03,0,.33.09.45.43.45,1.06-.02,2.13-.02,3.19,0,.32,0,.41-.11.41-.42,0-4.7,0-9.4,0-14.1,0-.36-.14-.43-.46-.42-1.04.01-2.07.02-3.11,0-.38,0-.48.12-.48.49.01,2.33,0,4.66,0,6.98Zm-7.56,2.37c0-1.55,0-3.09,0-4.64,0-.3-.07-.44-.4-.43-1.08.02-2.16.01-3.24,0-.29,0-.4.09-.4.39,0,3.12,0,6.25,0,9.37,0,.32.12.41.42.41,1.05-.01,2.1-.02,3.15,0,.35,0,.47-.1.47-.46-.02-1.55,0-3.09,0-4.64Zm-11.58,2.44c0-.78,0-1.56,0-2.34,0-.29-.1-.4-.39-.4-1.08.01-2.16.01-3.24,0-.33,0-.41.12-.41.43.01,1.52.01,3.04,0,4.56,0,.31.1.42.42.42,1.06-.01,2.13-.02,3.19,0,.35,0,.44-.13.43-.45-.02-.74,0-1.48,0-2.21Z"/>
    <path class="cls-2" d="m50.05,22.79c-.59-.17-1.15-.35-1.72-.5-.29-.08-.39-.2-.29-.51.4-1.26.13-1.1,1.35-.75.99.29,1.98.61,2.97.92.75.23.92.66.53,1.36-.61,1.08-1.22,2.15-1.81,3.23-.17.3-.31.36-.62.17-.86-.52-.87-.51-.38-1.39.19-.33.37-.67.55-1-.14-.11-.24-.01-.33.02-7.24,2.9-14.48,5.81-21.72,8.72-2.98,1.19-5.95,2.39-8.93,3.59q-.55.22-.77-.32-.33-.81.5-1.14c10.07-4.04,20.15-8.08,30.22-12.13.15-.06.33-.08.47-.27Z"/>
  </g>
</svg>