<?xml version="1.0" encoding="UTF-8"?>
<svg id="Layer_1" data-name="Layer 1" xmlns="http://www.w3.org/2000/svg" viewBox="0 0 72 72">
  <defs>
    <style>
      .cls-1 {
        fill: rgba(187, 47, 40, .1);
        stroke: #bb2f28;
        stroke-width: 2px;
      }

      .cls-2 {
        fill: #bc2f27;
        stroke-width: 0px;
      }
    </style>
  </defs>
  <path class="cls-1" d="m6,36c0-14.1,0-21.2,4.4-25.6s11.5-4.4,25.6-4.4,21.2,0,25.6,4.4c4.4,4.4,4.4,11.5,4.4,25.6s0,21.2-4.4,25.6c-4.4,4.4-11.5,4.4-25.6,4.4s-21.2,0-25.6-4.4-4.4-11.5-4.4-25.6Z"/>
  <g>
    <path class="cls-2" d="m55.8,43.71c-.29,1.75-1.25,3.09-2.51,4.28-1.18,1.11-2.31,2.28-3.44,3.44-.26.26-.42.28-.68,0-1.48-1.53-3.08-2.93-4.46-4.54-1.61-1.87-1.98-4.06-1.1-6.36.88-2.3,2.63-3.67,5.07-4.01,3.41-.47,6.47,1.83,7.07,5.22.01.06.03.12.05.19v1.78Zm-6.34-2.85c-1.06,0-1.89.83-1.9,1.88,0,1.06.85,1.9,1.93,1.89,1.06,0,1.89-.83,1.89-1.88,0-1.07-.84-1.9-1.92-1.89Z"/>
    <path class="cls-2" d="m34.19,49.33c3.04,0,6.08,0,9.12,0,.54,0,.54,0,.54.53,0,.5-.01,1,0,1.51,0,.29-.12.4-.39.38-.06,0-.13,0-.19,0-6.01,0-12.03,0-18.04,0-2.27,0-4.01-.98-5.02-3.05-1.53-3.14.51-6.92,3.96-7.42.35-.05.69-.06,1.04-.06,3.57,0,7.13,0,10.7,0,1.42,0,2.48-.78,2.87-2.08.52-1.71-.76-3.56-2.54-3.59-2.47-.04-4.95-.02-7.42-.02q-.64,0-.64-.63c0-.46,0-.93,0-1.39,0-.27.07-.4.37-.4,2.61,0,5.23-.07,7.84.04,2.09.09,3.63,1.22,4.46,3.14.84,1.95.55,3.82-.8,5.47-1.09,1.33-2.56,1.9-4.26,1.9-3.55,0-7.11.01-10.66,0-1.14,0-2.04.41-2.62,1.4-1.14,1.94.23,4.28,2.52,4.29,3.05.02,6.1,0,9.16,0Z"/>
    <path class="cls-2" d="m16.2,26.55c0-3.34,2.54-6.03,5.9-6.29,3.37-.26,6.26,2.25,6.68,5.4.29,2.13-.37,3.94-1.85,5.46-1.35,1.38-2.73,2.73-4.09,4.11-.24.24-.38.24-.62,0-1.37-1.39-2.77-2.77-4.15-4.16-1.23-1.25-1.87-2.75-1.87-4.52Zm6.31-1.92c-1.08,0-1.92.82-1.93,1.88,0,1.05.83,1.88,1.88,1.89,1.08,0,1.93-.83,1.93-1.89,0-1.05-.84-1.88-1.89-1.89Z"/>
  </g>
</svg>